<mxfile host="app.diagrams.net" modified="2023-11-15T00:01:40.278Z" agent="Mozilla/5.0 (X11; Linux x86_64; rv:109.0) Gecko/20100101 Firefox/119.0" version="22.1.1" etag="tGE9VWpTrziWhNEzO-84" type="github">
  <diagram name="Page-1" id="Qih-rZB-r5Ekm_qSRhbP">
    <mxGraphModel>
      <root>
        <mxCell id="0" />
        <mxCell id="1" parent="0" />
      </root>
    </mxGraphModel>
  </diagram>
</mxfile>
